<svg id="Ebene_1" data-name="Ebene 1" xmlns="http://www.w3.org/2000/svg" viewBox="0 0 654.45 259.47"><defs><style>.cls-1{fill:#2d3f51;}.cls-2{font-size:49.87px;letter-spacing:0.01em;}.cls-2,.cls-3,.cls-4,.cls-5,.cls-6{fill:#fff;}.cls-2,.cls-5,.cls-6{font-family:FiraSans-Heavy, Fira Sans;font-weight:800;}.cls-3{font-size:56.11px;}.cls-3,.cls-4{font-family:IndieFlower, Indie Flower;}.cls-4{font-size:46.13px;}.cls-5,.cls-6{font-size:29.08px;}.cls-5{letter-spacing:0.01em;}</style></defs><path class="cls-1" d="M496.11,348.18c.58.28,1-.16,1.46-.38a304.15,304.15,0,0,1,29.89-12.09q13.88-4.86,28-9c8.77-2.56,17.55-5,26.4-7.27,9.84-2.49,19.69-4.95,29.61-7.09,6.39-1.37,12.77-2.86,19.19-4.13,7.42-1.47,14.88-2.73,22.31-4.11,5.44-1,10.9-1.84,16.37-2.59,4.7-.65,9.4-1.29,14.11-1.86,3.63-.43,7.28-.83,10.92-1.16,4.06-.37,8.12-.9,12.21-.93,3.06,0,6.11-.45,9.18-.34.42,0,.85,0,1.26,0,1.18.1,1.52.4,1.46,1.58a40.48,40.48,0,0,1-.52,4.11c-1,6.23-2,12.45-3,18.69-.83,5.45-1.56,10.93-2.4,16.38-1.1,7.18-2.28,14.35-3.39,21.53-.91,5.88-1.71,11.77-2.68,17.64-.58,3.5-.89,7-1.66,10.5a7.65,7.65,0,0,0-.15,1.07c-.33,3.7-1,7.37-1.57,11-.32,1.94-.61,3.91-.89,5.87-.4,2.78-.91,5.56-1.26,8.34-.29,2.31-.88,4.57-1.1,6.9-.3,3.28-1.07,6.51-1.64,9.76a1.44,1.44,0,0,1-1.48,1.31c-.42,0-.84,0-1.26,0H562.73c-9.32,0-18.64,0-28,0a3.1,3.1,0,0,1-3.25-1.93q-1.9-3.89-4-7.67c-2.07-3.73-4.22-7.41-6.33-11.12-3.73-6.59-7.29-13.28-11.23-19.74-4.63-7.6-8.74-15.49-13.29-23.13-1.22-2.06-2.25-4.24-3.39-6.35a3.82,3.82,0,0,0-1.36-1.71,8.6,8.6,0,0,0-.91,2.41c-1.19,3.71-2.33,7.44-3.49,11.17-.58,1.85-.31,2.94,1.29,4.07a7,7,0,0,1,2,2.26c4.15,7,33.2,56.24,34.29,58.3a3.24,3.24,0,0,0,3.27,1.94q87.21-.06,174.41,0h.72c1.55,0,1.63-.07,1.93-1.56.45-2.29.85-4.6,1.24-6.9.61-3.62,1.11-7.25,1.79-10.84.37-1.93,1.17-3.76,1.45-5.74.56-3.92,1.16-7.83,1.91-11.72.4-2.06.76-4.13,1-6.2.49-3.5,1.66-6.89,1.44-10.5a24.32,24.32,0,0,1,.86-5.68c1.08-6,2-12,3.05-17.93q1.78-10.2,3.52-20.41c.83-4.92,1.57-9.84,2.4-14.75,1.11-6.57,2.36-13.12,3.37-19.7a124.65,124.65,0,0,1,3.35-16,59.35,59.35,0,0,1,4.24-10.89,17.1,17.1,0,0,1,8.22-7.78,55.32,55.32,0,0,1,13.79-4.05c1.53-.27,3.07-.56,4.6-.82,2.85-.5,5.72-.79,8.57-1.14,3.45-.44,6.93-.65,10.41-.86,5-.31,8.66,3.46,8,9.16-.49,4-3,6.48-7.22,6.71s-8.14.62-12.18,1.16a85.45,85.45,0,0,0-16.88,3.6,6.17,6.17,0,0,0-3.77,3.37,55.65,55.65,0,0,0-3.11,9.2c-1.65,6.1-2.37,12.37-3.52,18.57-.53,2.88-1,5.8-1.46,8.7-.25,1.51,0,1.8,1.54,1.83,1.27,0,2.53,0,3.79,0,40.64,0,41.29,0,81.93,0,3.11,0,3,.65,4.33-3s2.69-7.32,4-11c.06-.17.15-.33.21-.5.61-1.67.47-1.9-1.25-1.91-4.27,0-8.54,0-12.81,0a10,10,0,0,1-8-3.81,9.87,9.87,0,0,1-2.06-5.66c-.4-4.52,1.4-8.52,5.6-10.58a10.4,10.4,0,0,1,4.55-1c13.7,0,27.41,0,41.12,0a9.89,9.89,0,0,1,9.85,7.25,6.88,6.88,0,0,1,.28,2c0,4.69,0,9.38,0,14.07,0,2.82-1.73,5.36-4.13,5.93a8.15,8.15,0,0,1-5.13-.34c-2.72-1.13-5.43-2.29-8.19-3.31-3.69-1.36-2.81-1.83-4.23,1.92-2.4,6.34-4.67,12.74-7.06,19.09a4.16,4.16,0,0,0,.41,4c5.52,8.95,10.94,18,16.39,26.95,1.56,2.57,3.12,5.14,4.72,7.68.83,1.33.91,1.35,2.3.73a76.33,76.33,0,0,1,22.14-6.15,86.22,86.22,0,0,1,17.45-.2,76.38,76.38,0,0,1,32.94,10.7,77.24,77.24,0,0,1,26.14,26.13,75.15,75.15,0,0,1,8.11,18.6,69,69,0,0,1,2.62,14,61.77,61.77,0,0,1,.24,11.14c-.31,2.85-.34,5.73-.73,8.6A73.63,73.63,0,0,1,975.07,472a75.82,75.82,0,0,1-14.89,27.15,78.45,78.45,0,0,1-22,17.88,75.63,75.63,0,0,1-18.24,7.1,62.2,62.2,0,0,1-13.16,2c-1.56.05-3.1.33-4.67.33a82.82,82.82,0,0,1-23-3,77.32,77.32,0,0,1-51.23-47.45,73.32,73.32,0,0,1-4.27-18.19c-.14-1.44-.33-1.64-1.76-1.7-.72,0-1.44,0-2.16,0H524.09a17.8,17.8,0,0,1-4.12-.36,7.4,7.4,0,0,1-4.92-3.64q-5.92-10.1-11.9-20.18c-5.12-8.7-10.21-17.42-15.35-26.11-1.71-2.89-3.52-5.73-5.26-8.61-.5-.82-.91-1.68-1.4-2.62a13.86,13.86,0,0,0-1.31,3.68c-1.93,5.94-3.66,11.94-5.4,17.94-1.29,4.44-2.84,8.8-4.25,13.2-1.56,4.91-3.15,9.83-4.63,14.77a35.79,35.79,0,0,1-3.39,7.73,3.14,3.14,0,0,0-.15,3.35,43.57,43.57,0,0,1,4,12.09,49.63,49.63,0,0,1,.4,15.77,50.2,50.2,0,0,1-7.05,19.5,49.35,49.35,0,0,1-27.29,20.94A39.35,39.35,0,0,1,422,525.46c-2.58.09-5.14.18-7.73,0a46.84,46.84,0,0,1-23.15-7.67,48.55,48.55,0,0,1-19.49-24.33A45.36,45.36,0,0,1,369,480.88a53.49,53.49,0,0,1,.24-11.32,46.76,46.76,0,0,1,4-13.42A49.55,49.55,0,0,1,387.39,438a47.88,47.88,0,0,1,15.52-8.22,50.24,50.24,0,0,1,16.69-2.29,50.74,50.74,0,0,1,9.25,1.29,47.94,47.94,0,0,1,17,7.5c1.29.88,2.47,1.91,3.68,2.89s1.61.94,2.08-.56q1.56-4.89,3.08-9.8c3.28-10.48,6.4-21,9.91-31.41,1.89-5.58,3.71-11.17,5.51-16.77,2.87-8.92,5.84-17.81,8.44-26.81,2.49-8.65,5.52-17.14,8.05-25.78a8.62,8.62,0,0,1,1.87-3.45c2.44-2.66,6.49-2.64,9-1.33a7.15,7.15,0,0,1,3.49,8c-.83,3.2-1.89,6.33-2.86,9.49-.67,2.18-1.36,4.36-2,6.53-.08.28-.22.58,0,.88Zm305.37-3.87H740.72l-1.8,0a1.24,1.24,0,0,0-1.38,1.13c-.06.42-.2.82-.26,1.24-.56,3.55-1,7.13-1.68,10.66-1.06,5.73-2,11.47-3,17.21s-1.91,11.62-2.87,17.42c-.72,4.26-1.46,8.52-2.19,12.78l-1.53,8.86q-1.39,8.16-2.78,16.33c-.51,3-1,6-1.52,9.06-.18,1.11.08,1.38,1.22,1.48.3,0,.6,0,.9,0h63.85c2,0,2,0,2.78-1.84.09-.22.18-.44.26-.67,2.69-7.7,5.69-15.28,8.31-23,2.16-6.36,4.52-12.66,7-18.9,2.18-5.46,4.18-11,6.27-16.49,4.14-10.88,8.1-21.84,12.15-32.75,1-2.55,1-2.54-1.72-2.54Zm63.09,112.1q-11.46,0-22.9,0c-1.84,0-1.91,0-1.63,1.81a59.55,59.55,0,0,0,5.22,16.62,63.55,63.55,0,0,0,11,16,61.79,61.79,0,0,0,16.13,12.28,63.3,63.3,0,0,0,13.21,5.19,58.79,58.79,0,0,0,13.85,2.11,58,58,0,0,0,19.84-3,63,63,0,0,0,38.62-35.91,60.93,60.93,0,0,0,4.59-21.92A55.78,55.78,0,0,0,960.25,433,62.62,62.62,0,0,0,945,406.32a62.78,62.78,0,0,0-43.92-19.15,54.31,54.31,0,0,0-7.54.45,60.67,60.67,0,0,0-16.1,4.41c-1.36.59-1.35.68-.58,2l13.82,22.81c3.33,5.5,6.69,11,10,16.48a3.5,3.5,0,0,0,2.83,1.89,11.67,11.67,0,0,1,6.68,3.26c4.66,4.36,5.22,12.47,2.25,17.7a12.33,12.33,0,0,1-10.79,6.44c-4.36.21-8.27-.93-11.08-4.46a4.29,4.29,0,0,0-3.85-1.72c-7.4,0-14.79,0-22.18,0Zm-413.76,11.5a8.12,8.12,0,0,0-.78.57c-1.59,1.56-3.16,3.12-4.85,4.57a58.33,58.33,0,0,1-24.37,12.74,9.52,9.52,0,0,1-5.69-.05c-6-2.21-5.76-9.9-2-12.68a12.08,12.08,0,0,1,4.25-1.85,42.92,42.92,0,0,0,6.81-2.29,49.23,49.23,0,0,0,17.86-14c1-1.24,1-1.28-.08-2.37a32.54,32.54,0,0,0-11.8-7.77,33.35,33.35,0,0,0-15.56-2.16,34,34,0,0,0-26.92,17.92,32.5,32.5,0,0,0-3.6,10.52,34.93,34.93,0,0,0-.16,9.69,34.08,34.08,0,0,0,6.16,15.77,34.4,34.4,0,0,0,28.32,14.26A31.61,31.61,0,0,0,429,508.86c11.76-4.4,19.06-12.72,22.19-24.83.75-2.9.52-5.84.65-8.78a25.33,25.33,0,0,0-1-7.34ZM837.48,360.19a2.23,2.23,0,0,0-.87,1.42c-1.46,3.93-2.9,7.88-4.35,11.82-2.63,7.15-5.23,14.31-7.93,21.44-2.28,6-4.24,12.13-6.56,18.12-2.8,7.22-5.47,14.48-8.2,21.73-.48,1.29-1,2.58-1.41,3.89s-.22,1.76,1.2,1.83h.54c3.78,0,7.57,0,11.36,0,1.85,0,2.16-.25,2.33-2.16a66.63,66.63,0,0,1,2.62-12.67,46.29,46.29,0,0,1,3.1-8.05c1.12-2.24,1.88-4.67,3.16-6.86,4.95-8.46,10.7-16.23,18.68-22.13,2.51-1.86,2.54-2.21.9-4.85-1.11-1.79-2.37-3.47-3.46-5.27-3.09-5.08-6.11-10.2-9.21-15.28a16.7,16.7,0,0,0-1.9-3Zm25.58,80.26h2.7c6.25,0,12.5,0,18.74,0,1.56,0,1.69-.24,1-1.48-3.75-6.22-7.49-12.44-11.27-18.64-2.91-4.77-5.88-9.5-8.82-14.24-.72-1.18-1.42-2.37-2.17-3.53-.6-.95-1-1.06-1.89-.38-1.59,1.26-3.35,2.36-4.4,4.2a2.65,2.65,0,0,1-.71.81c-2.12,1.49-3.47,3.61-4.91,5.68a68.9,68.9,0,0,0-7.77,14.19,55.25,55.25,0,0,0-3.18,11.41c-.3,2-.2,2,1.83,2Z" transform="translate(-353.48 -267)"/><path class="cls-1" d="M437.31,381c0-3.66,0-7.32,0-11,0-2.1.32-2.51,2.41-2.31,6,.59,12.09,1,17.86,3a23,23,0,0,1,2.66,1.11c3.87,1.93,5.7,5,5.7,9.4,0,4-1.44,7-4.93,8.93a18.5,18.5,0,0,1-4,1.61,73,73,0,0,1-17.39,2.64c-2,.05-2.27-.21-2.29-2.26,0-3.73,0-7.45,0-11.17Z" transform="translate(-353.48 -267)"/><text class="cls-2" transform="matrix(0.99, -0.14, 0.14, 0.99, 177.29, 113.06)">LIEFER</text><text class="cls-3" transform="translate(182.94 155.06) rotate(-8)">EM</text><text class="cls-3" transform="translate(241.75 146.79) rotate(-8)">M</text><text class="cls-4" transform="translate(271.44 142.62) rotate(-8)">A</text><text class="cls-5" transform="translate(294.83 122.58) rotate(-8)">.D</text><text class="cls-6" transform="translate(321.06 118.9) rotate(-8)">E</text><path class="cls-1" d="M991.06,427.19a48.88,48.88,0,0,1,1.13,15.25c0,.09.64-.26.66-.49a49.21,49.21,0,0,0-1.13-15.25c0-.15-.7.29-.66.49Z" transform="translate(-353.48 -267)"/><path class="cls-1" d="M1004.33,404c3,4.53,2.92,10.92,2.84,16.17a67.5,67.5,0,0,1-2,15.44c-.13.5.63.27.72-.09a68.14,68.14,0,0,0,2.08-16.34c0-5.16,0-11.29-2.95-15.74-.21-.31-.86.23-.64.56Z" transform="translate(-353.48 -267)"/><path class="cls-1" d="M989.64,450.21a16.72,16.72,0,0,1-2.9,8.59c-.32.45.37.2.53,0a17.25,17.25,0,0,0,3-8.9c0-.36-.66.09-.67.34Z" transform="translate(-353.48 -267)"/><path class="cls-1" d="M359.24,453.29a114.7,114.7,0,0,0-5.76,25.28c0,.37.79.23.82-.08a114.78,114.78,0,0,1,5.76-25.29c.11-.31-.71-.22-.82.09Z" transform="translate(-353.48 -267)"/><path class="cls-1" d="M364.87,465.42a40.86,40.86,0,0,0-3.45,18.34c0,.2.83.05.82-.22a40.4,40.4,0,0,1,3.44-18.24c.08-.19-.71-.11-.81.12Z" transform="translate(-353.48 -267)"/></svg>